<?xml version="1.0" standalone="no"?>
<!DOCTYPE svg PUBLIC "-//W3C//DTD SVG 20010904//EN"
 "http://www.w3.org/TR/2001/REC-SVG-20010904/DTD/svg10.dtd">
<svg version="1.0" xmlns="http://www.w3.org/2000/svg"
 width="256.000000pt" height="256.000000pt" viewBox="0 0 256.000000 256.000000"
 preserveAspectRatio="xMidYMid meet">
<metadata>
Created by potrace 1.14, written by Peter Selinger 2001-2017
</metadata>
<g transform="translate(0.000000,256.000000) scale(0.100000,-0.100000)"
fill="#000000" stroke="none">
<path d="M155 2536 c-64 -29 -129 -102 -144 -161 -8 -31 -11 -356 -11 -1107 1
-1043 1 -1064 21 -1108 25 -55 71 -105 124 -133 l40 -22 1085 -2 1085 -3 50
24 c58 27 99 65 129 121 l21 40 0 1095 0 1095 -29 50 c-33 56 -54 76 -111 108
l-40 22 -1085 2 -1085 3 -50 -24z"/>
</g>
</svg>
