<?xml version="1.0" standalone="no"?>
<!DOCTYPE svg PUBLIC "-//W3C//DTD SVG 20010904//EN"
 "http://www.w3.org/TR/2001/REC-SVG-20010904/DTD/svg10.dtd">
<svg version="1.0" xmlns="http://www.w3.org/2000/svg"
 width="256.000000pt" height="256.000000pt" viewBox="0 0 256.000000 256.000000"
 preserveAspectRatio="xMidYMid meet">
<metadata>
Created by potrace 1.14, written by Peter Selinger 2001-2017
</metadata>
<g transform="translate(0.000000,256.000000) scale(0.100000,-0.100000)"
fill="#000000" stroke="none">
<path d="M640 2526 c0 -3 34 -84 76 -178 88 -200 142 -324 155 -355 7 -19 3
-25 -29 -40 -242 -113 -442 -338 -531 -598 -20 -60 -23 -73 -42 -175 -13 -76
-9 -262 9 -335 8 -33 15 -67 16 -75 1 -8 5 -22 8 -30 3 -8 14 -37 23 -65 47
-131 140 -271 252 -378 64 -61 195 -157 215 -157 6 0 19 -7 28 -15 21 -19 203
-83 257 -90 21 -3 45 -8 53 -11 26 -10 226 -13 266 -4 22 5 55 11 74 14 126
19 330 111 434 196 59 48 168 164 208 222 82 118 150 285 173 428 10 59 10
255 1 300 -32 155 -74 275 -125 355 -14 22 -25 42 -26 45 0 11 -102 135 -146
179 -57 58 -169 139 -242 176 -39 20 -56 35 -53 45 2 8 56 134 120 279 64 145
115 265 113 268 -4 3 -48 -13 -102 -37 -11 -5 -138 -56 -282 -115 -207 -84
-266 -104 -280 -96 -13 8 -512 210 -609 248 -8 3 -14 2 -14 -1z"/>
</g>
</svg>
